# Blender v2.79 (sub 0) OBJ File: 'star.blend'
# www.blender.org
o Cube
v 0.000000 0.000000 0.529904
v 0.589092 0.802922 0.000000
v 2.412709 0.796060 0.000000
v 1.493838 -2.038339 0.000000
v 0.928284 -0.287007 0.000000
v -0.589092 0.802922 0.000000
v -2.412709 0.796060 0.000000
v 0.000000 -0.948028 0.000000
v 0.000000 2.538294 0.000000
v -1.493838 -2.038339 0.000000
v 0.000000 0.000000 -0.529904
v -0.928284 -0.287007 0.000000
vn -0.3355 -0.4596 0.8223
vn 0.5158 0.1751 0.8387
vn 0.3315 -0.4544 0.8268
vn 0.5277 0.1704 0.8322
vn 0.0021 0.5498 0.8353
vn 0.3355 -0.4596 0.8223
vn -0.5158 0.1751 0.8387
vn -0.3315 -0.4544 0.8268
vn -0.5277 0.1704 0.8322
vn -0.0021 0.5498 0.8353
vn -0.3355 -0.4596 -0.8223
vn 0.5158 0.1751 -0.8387
vn 0.3315 -0.4544 -0.8268
vn 0.5277 0.1704 -0.8322
vn 0.0021 0.5498 -0.8353
vn 0.3355 -0.4596 -0.8223
vn -0.5158 0.1751 -0.8387
vn -0.3315 -0.4544 -0.8268
vn -0.5277 0.1704 -0.8322
vn -0.0021 0.5498 -0.8353
s off
f 4//1 1//1 8//1
f 1//2 2//2 9//2
f 1//3 5//3 3//3
f 5//4 1//4 4//4
f 1//5 3//5 2//5
f 10//6 8//6 1//6
f 1//7 9//7 6//7
f 1//8 7//8 12//8
f 12//9 10//9 1//9
f 1//10 6//10 7//10
f 4//11 8//11 11//11
f 11//12 9//12 2//12
f 11//13 3//13 5//13
f 5//14 4//14 11//14
f 11//15 2//15 3//15
f 10//16 11//16 8//16
f 11//17 6//17 9//17
f 11//18 12//18 7//18
f 12//19 11//19 10//19
f 11//20 7//20 6//20
